<svg xmlns="http://www.w3.org/2000/svg" viewBox="0 0 13.4 16.89"><defs><style>.cls-1{fill:none;stroke:gray;stroke-miterlimit:10;}.cls-2{fill:gray;}</style></defs><g id="Layer_2" data-name="Layer 2"><g id="Layer_1-2" data-name="Layer 1"><g id="G"><rect class="cls-1" x="0.5" y="0.5" width="12.4" height="15.89" rx="1.95"/><path class="cls-2" d="M9.78,11.6a2.65,2.65,0,0,1-1.21.93,5,5,0,0,1-1.81.3,3.48,3.48,0,0,1-1.85-.49A3.19,3.19,0,0,1,3.66,11a4.63,4.63,0,0,1-.45-2.09V8.12a4.49,4.49,0,0,1,.9-3A3.1,3.1,0,0,1,6.63,4.07a3.26,3.26,0,0,1,2.15.68,3,3,0,0,1,1,1.94H8.66a1.87,1.87,0,0,0-2-1.7,2,2,0,0,0-1.71.79,3.85,3.85,0,0,0-.59,2.3v.7A3.71,3.71,0,0,0,5,11.07a2.14,2.14,0,0,0,1.78.84,3.74,3.74,0,0,0,1.11-.14,1.73,1.73,0,0,0,.78-.47V9.39h-2V8.47H9.78Z"/></g></g></g></svg>