<svg xmlns="http://www.w3.org/2000/svg" viewBox="0 0 20.93 16.89"><defs><style>.cls-1{fill:none;stroke:gray;stroke-miterlimit:10;}.cls-2{fill:gray;}</style></defs><g id="Layer_2" data-name="Layer 2"><g id="Layer_1-2" data-name="Layer 1"><g id="PG"><rect class="cls-1" x="0.5" y="0.5" width="19.93" height="15.89" rx="1.82"/><path class="cls-2" d="M4.62,9.43v3.34H3.49V4.23H6.64A3.14,3.14,0,0,1,8.83,5a2.43,2.43,0,0,1,.8,1.89,2.37,2.37,0,0,1-.78,1.91,3.29,3.29,0,0,1-2.22.68Zm0-.92h2A2,2,0,0,0,8,8.08,1.55,1.55,0,0,0,8.5,6.85,1.6,1.6,0,0,0,8,5.63,1.91,1.91,0,0,0,6.7,5.15H4.62Z"/><path class="cls-2" d="M17.36,11.65a2.65,2.65,0,0,1-1.21.93,5,5,0,0,1-1.81.3,3.48,3.48,0,0,1-1.85-.49A3.19,3.19,0,0,1,11.24,11a4.63,4.63,0,0,1-.45-2.09V8.17a4.47,4.47,0,0,1,.89-3,3.14,3.14,0,0,1,2.53-1.06,3.2,3.2,0,0,1,2.15.68,2.93,2.93,0,0,1,1,1.94H16.23a1.85,1.85,0,0,0-2-1.7,2,2,0,0,0-1.72.79,3.92,3.92,0,0,0-.58,2.3v.7a3.64,3.64,0,0,0,.65,2.29,2.14,2.14,0,0,0,1.78.84,3.74,3.74,0,0,0,1.11-.14,1.73,1.73,0,0,0,.78-.47V9.44h-2V8.52h3.09Z"/></g></g></g></svg>