<svg xmlns="http://www.w3.org/2000/svg" viewBox="0 0 37.4 16.89"><defs><style>.cls-1{fill:none;stroke:gray;stroke-miterlimit:10;}.cls-2{fill:gray;}</style></defs><g id="Layer_2" data-name="Layer 2"><g id="Layer_1-2" data-name="Layer 1"><g id="PG13"><rect class="cls-1" x="0.5" y="0.5" width="36.4" height="15.89" rx="1.95"/><path class="cls-2" d="M4.61,9.38v3.34H3.48V4.19H6.63a3.14,3.14,0,0,1,2.19.71,2.43,2.43,0,0,1,.8,1.89,2.4,2.4,0,0,1-.78,1.92,3.34,3.34,0,0,1-2.22.67Zm0-.92h2A2,2,0,0,0,8,8,1.55,1.55,0,0,0,8.49,6.8,1.61,1.61,0,0,0,8,5.58a1.91,1.91,0,0,0-1.32-.47H4.61Z"/><path class="cls-2" d="M17.35,11.6a2.65,2.65,0,0,1-1.21.93,5,5,0,0,1-1.81.3,3.48,3.48,0,0,1-1.85-.49A3.25,3.25,0,0,1,11.23,11a4.76,4.76,0,0,1-.45-2.09V8.12a4.49,4.49,0,0,1,.9-3A3.12,3.12,0,0,1,14.2,4.07a3.26,3.26,0,0,1,2.15.68,3,3,0,0,1,1,1.94H16.23a1.87,1.87,0,0,0-2-1.7,2,2,0,0,0-1.71.79,3.85,3.85,0,0,0-.59,2.3v.7a3.71,3.71,0,0,0,.65,2.29,2.14,2.14,0,0,0,1.78.84,3.74,3.74,0,0,0,1.11-.14,1.73,1.73,0,0,0,.78-.47V9.39h-2V8.47h3.09Z"/><path class="cls-2" d="M25.48,12.72H24.39V5.49l-2.19.8v-1l3.11-1.17h.17Z"/><path class="cls-2" d="M30.23,7.92H31a1.75,1.75,0,0,0,1.21-.4,1.37,1.37,0,0,0,.44-1.06A1.32,1.32,0,0,0,31.2,5a1.56,1.56,0,0,0-1.13.4,1.43,1.43,0,0,0-.41,1.06H28.57a2.19,2.19,0,0,1,.74-1.68,2.7,2.7,0,0,1,1.89-.67,2.66,2.66,0,0,1,1.89.64,2.27,2.27,0,0,1,.68,1.77,1.89,1.89,0,0,1-.36,1.08,2.11,2.11,0,0,1-1,.78,2.09,2.09,0,0,1,1.09.74,2.07,2.07,0,0,1,.38,1.26,2.33,2.33,0,0,1-.75,1.82,2.8,2.8,0,0,1-1.95.67,2.84,2.84,0,0,1-1.95-.65,2.14,2.14,0,0,1-.75-1.71h1.09A1.37,1.37,0,0,0,30,11.54,1.69,1.69,0,0,0,31.2,12a1.63,1.63,0,0,0,1.2-.41,1.57,1.57,0,0,0,.42-1.18,1.41,1.41,0,0,0-.46-1.14A2,2,0,0,0,31,8.81h-.81Z"/></g></g></g></svg>