<svg xmlns="http://www.w3.org/2000/svg" viewBox="0 0 19.92 16.89"><defs><style>.cls-1{fill:none;stroke:#ff6767;stroke-miterlimit:10;}.cls-2{fill:#ff6767;}</style></defs><g id="Layer_2" data-name="Layer 2"><g id="Layer_1-2" data-name="Layer 1"><g id="R_" data-name="R+"><path class="cls-1" d="M2.6.5H17.32a2.06,2.06,0,0,1,2.1,2V14.37a2.06,2.06,0,0,1-2.1,2H2.6a2.06,2.06,0,0,1-2.1-2V2.52A2.06,2.06,0,0,1,2.6.5Z"/><path class="cls-2" d="M6.62,9.31h-2v3.46H3.48V4.23H6.31a3.34,3.34,0,0,1,2.22.66A2.38,2.38,0,0,1,9.3,6.8a2.3,2.3,0,0,1-.43,1.39,2.59,2.59,0,0,1-1.2.88l2,3.63v.07H8.47Zm-2-.92H6.34A2,2,0,0,0,7.68,8,1.47,1.47,0,0,0,8.17,6.8,1.57,1.57,0,0,0,7.7,5.58a2,2,0,0,0-1.36-.43H4.61Z"/><path class="cls-2" d="M13.81,8.19h2.38v1H13.81v2.7H12.72V9.21H10.34v-1h2.38V5.7h1.09Z"/></g></g></g></svg>