<svg xmlns="http://www.w3.org/2000/svg" viewBox="0 0 12.97 16.89"><defs><style>.cls-1{fill:none;stroke:gray;stroke-miterlimit:10;}.cls-2{fill:gray;}</style></defs><g id="Layer_2" data-name="Layer 2"><g id="Layer_1-2" data-name="Layer 1"><g id="R"><path class="cls-1" d="M2.65.5h7.67a2.1,2.1,0,0,1,2.15,2.06V14.33a2.11,2.11,0,0,1-2.15,2.06H2.65A2.11,2.11,0,0,1,.5,14.33V2.56A2.1,2.1,0,0,1,2.65.5Z"/><path class="cls-2" d="M6.62,9.31h-2v3.46H3.48V4.23H6.31a3.34,3.34,0,0,1,2.22.66A2.38,2.38,0,0,1,9.3,6.8a2.3,2.3,0,0,1-.43,1.39,2.54,2.54,0,0,1-1.2.88l2,3.63v.07H8.47Zm-2-.92H6.34A2,2,0,0,0,7.68,8,1.47,1.47,0,0,0,8.17,6.8,1.57,1.57,0,0,0,7.7,5.58a2,2,0,0,0-1.36-.43H4.61Z"/></g></g></g></svg>