<?xml version="1.0" standalone="no"?>
<!DOCTYPE svg PUBLIC "-//W3C//DTD SVG 20010904//EN"
 "http://www.w3.org/TR/2001/REC-SVG-20010904/DTD/svg10.dtd">
<svg version="1.0" xmlns="http://www.w3.org/2000/svg"
 width="1072.000000pt" height="1072.000000pt" viewBox="0 0 1072.000000 1072.000000"
 preserveAspectRatio="xMidYMid meet">
<metadata>
Created by potrace 1.14, written by Peter Selinger 2001-2017
</metadata>
<g transform="translate(0.000000,1072.000000) scale(0.100000,-0.100000)"
fill="#000000" stroke="none">
<path d="M3635 9714 c-798 -64 -1491 -322 -2099 -782 -271 -205 -542 -476
-748 -748 -669 -884 -929 -2016 -712 -3102 246 -1234 1086 -2281 2234 -2786
739 -325 1538 -412 2330 -255 330 66 621 165 935 319 435 214 707 409 1058
762 l208 209 1202 -817 c661 -450 1430 -972 1709 -1162 279 -189 510 -344 514
-344 5 -1 108 147 231 327 l222 328 -97 67 c-123 85 -2294 1559 -2877 1955
-242 164 -444 301 -448 305 -5 4 16 57 47 117 190 380 314 787 377 1237 27
191 37 611 20 807 -54 614 -230 1164 -537 1679 -618 1036 -1685 1725 -2889
1865 -133 16 -569 28 -680 19z m645 -419 c545 -64 1075 -260 1534 -567 720
-483 1241 -1232 1441 -2072 73 -310 90 -462 90 -821 -1 -330 -14 -468 -75
-743 -319 -1432 -1494 -2508 -2945 -2697 -825 -108 -1674 89 -2365 548 -862
572 -1409 1466 -1536 2507 -25 198 -25 589 -1 788 97 791 443 1507 997 2062
600 600 1375 949 2250 1014 109 8 478 -4 610 -19z"/>
<path d="M3260 8843 c-315 -33 -459 -76 -830 -245 -171 -78 -613 -299 -608
-304 2 -1 64 11 138 27 427 94 721 143 1075 181 182 19 265 22 620 23 433 0
536 -7 795 -56 287 -55 631 -167 980 -321 184 -81 504 -238 654 -322 105 -58
146 -76 170 -74 25 2 32 8 34 29 4 32 -63 93 -279 254 -207 154 -399 272 -644
396 -464 233 -898 364 -1369 414 -181 19 -550 18 -736 -2z"/>
<path d="M3407 7465 c-261 -43 -488 -150 -677 -319 -68 -61 -74 -70 -60 -96
14 -26 52 -26 76 2 34 38 163 137 234 178 219 128 517 192 750 162 85 -11 110
-3 110 34 0 18 -8 27 -27 35 -47 18 -307 20 -406 4z"/>
<path d="M3630 7200 c-456 -31 -825 -207 -1053 -504 -99 -128 -151 -219 -211
-366 -29 -70 -88 -291 -80 -299 2 -3 30 20 62 50 382 369 909 650 1331 710
101 14 305 7 406 -15 249 -54 493 -180 761 -393 139 -110 403 -374 568 -568
l128 -150 -6 -68 c-29 -309 -201 -898 -380 -1301 -14 -33 -25 -61 -23 -63 2
-2 58 47 125 107 319 291 519 625 579 967 l18 103 125 4 c69 2 158 11 197 20
74 16 293 96 293 107 0 3 -35 13 -78 22 -121 26 -319 112 -329 143 -2 6 14 16
35 22 55 17 152 82 194 131 39 45 103 159 95 168 -3 2 -40 -2 -82 -11 -90 -19
-197 -21 -281 -5 -132 24 -301 115 -351 189 -16 23 -59 84 -96 136 l-69 95 64
67 c61 66 145 188 135 198 -3 3 -44 -2 -93 -11 -62 -12 -126 -16 -220 -13
-126 3 -133 4 -170 32 -208 153 -482 300 -694 374 -269 93 -620 141 -900 122z"/>
<path d="M3534 6560 c-140 -36 -273 -119 -389 -241 -417 -439 -483 -1265 -146
-1823 196 -324 515 -497 817 -443 160 29 276 91 412 222 179 172 297 397 363
697 27 121 37 414 19 555 -65 521 -362 938 -736 1033 -100 26 -243 26 -340 0z
m-89 -839 c51 -23 97 -75 120 -135 37 -96 -6 -213 -98 -270 -173 -107 -388 47
-345 247 13 61 61 124 117 154 56 29 147 31 206 4z m765 -199 c50 -50 59 -94
31 -156 -16 -38 -29 -51 -67 -67 -62 -28 -106 -19 -156 31 -33 33 -38 44 -38
84 0 91 54 146 144 146 43 0 53 -4 86 -38z"/>
<path d="M4520 3814 c-303 -98 -707 -147 -1016 -125 -88 6 -215 20 -283 30
-131 21 -161 17 -161 -18 0 -31 25 -42 147 -62 297 -48 641 -46 952 6 148 25
378 83 430 108 29 14 38 41 21 62 -15 18 -31 18 -90 -1z"/>
</g>
</svg>
