<svg id="Layer_1" data-name="Layer 1" xmlns="http://www.w3.org/2000/svg" viewBox="0 0 133.75 108.76"><defs><style>.cls-1{fill:#eff3f8;stroke-width:5px;}.cls-1,.cls-2,.cls-3,.cls-4,.cls-5,.cls-6,.cls-7,.cls-8{stroke:#000;stroke-miterlimit:10;}.cls-2{fill:#359bff;stroke-width:10px;}.cls-4{fill:none;}.cls-4,.cls-5{stroke-linecap:round;}.cls-6{fill:#7254f3;}.cls-7{fill:#5000aa;fill-opacity:0.7;stroke-opacity:0;}.cls-8{fill:#fff;stroke-width:0.5px;}</style></defs><g id="Magnifier"><circle class="cls-1" cx="48.37" cy="48.37" r="45.87"/><line class="cls-2" x1="85.82" y1="73.97" x2="130.94" y2="104.62"/></g><g id="Right"><path class="cls-3" d="M219.76,170.33s0,0,0,0c.94-.48,7.85-3.93,10.36-4.46,22.38-4.72,39.25,9.92,41.52,12,0,0,0,.09-.05.07-1.93-1.12-12.53-7.08-21.56-8.93C237.11,166.35,221.28,170,219.76,170.33Z" transform="translate(-193.64 -153.76)"/><path class="cls-4" d="M241.11,182.4a15.83,15.83,0,0,0-13.73,4.44" transform="translate(-193.64 -153.76)"/><path class="cls-4" d="M250.81,227.72a36.49,36.49,0,0,1-18.48,1.15" transform="translate(-193.64 -153.76)"/><path d="M228.33,208.72,239.72,193m11.4,15.75-11.4,15.76,10.4-15.76M239.72,194" transform="translate(-193.64 -153.76)"/><path class="cls-5" d="M258.78,192.09a12.45,12.45,0,0,0,2.75.27,12.61,12.61,0,0,0,2.45-.27,9.47,9.47,0,0,1-1.11,1.48,9.3,9.3,0,0,1-1.27,1.17h0a19.75,19.75,0,0,1,2.51,3.45h0a9.25,9.25,0,0,0,3.29,2,9.35,9.35,0,0,0,5.14.25,5.34,5.34,0,0,1-1.94,2.13,5.24,5.24,0,0,1-2.66.8,0,0,0,0,0,0,.08,11.21,11.21,0,0,0,4.95,2.57,12.8,12.8,0,0,1-3.09.86,13.15,13.15,0,0,1-3.59,0h0c-.45,7.38-6,12.46-7.29,13.61,0,0,0,0,0,0a63.21,63.21,0,0,0,2.39-6.66,55.71,55.71,0,0,0,2.05-9.45l-.43-.63c-5.73-6.94-13.56-15.08-23.15-14-8.54,1-16.22,8.09-16.85,8.68,0,0,0,0,0,0a17.14,17.14,0,0,1,4.2-7.77c7.57-7.8,20.26-4.29,21.53-3.92a30.81,30.81,0,0,1,10.21,5.35" transform="translate(-193.64 -153.76)"/><ellipse class="cls-6" cx="46.21" cy="54.97" rx="10.98" ry="15.34"/><path class="cls-7" d="M239.85,193.89c5.13,0,10.5,5.5,10.48,15.49a24.8,24.8,0,0,0-10.5-2.49,24,24,0,0,0-10.44,2.3C229.28,199.64,234.68,193.89,239.85,193.89Z" transform="translate(-193.64 -153.76)"/><ellipse class="cls-3" cx="46.21" cy="54.99" rx="4.64" ry="7.62"/><circle class="cls-8" cx="41.75" cy="52.48" r="3.15"/><circle class="cls-8" cx="51.36" cy="53.59" r="2"/></g></svg>